#!OML:ASF F:\VICON\USERDATA\INSTALL\rory3\rory3.ASF
:FULLY-SPECIFIED
:DEGREES
2215
root -4.35712 17.3522 -2.85573 -324.925 -65.0507 354.476
lowerback 26.8957 0.573308 0.761199
upperback 7.85374 0.627436 2.03052
thorax -6.15702 0.097026 1.61906
lowerneck -18.1721 8.03819 -3.73299
upperneck 14.5634 12.3099 -2.47325
head 7.38633 5.42451 1.18368
rclavicle 2.31584e-014 -1.41137e-014
rhumerus -24.5214 28.7577 -93.6322
rradius 68.6726
rwrist 50.3464
rhand -6.71153 -13.4962
rfingers 7.12502
rthumb 19.1482 -42.5736
lclavicle 2.31584e-014 -1.41137e-014
lhumerus -20.247 -26.0178 93.6961
lradius 55.6135
lwrist -16.5119
lhand -23.2014 33.5704
lfingers 7.12502
lthumb 3.24861 63.5254
rfemur -52.2322 0.703709 18.0338
rtibia 41.5417
rfoot -13.962 3.14982
rtoes 6.35312
lfemur -51.685 -11.6273 10.6903
ltibia 18.7658
lfoot -20.2094 30.7435
ltoes -10.9716
2216
root -4.35628 17.3823 -2.94471 -325.16 -64.5433 354.727
lowerback 26.7868 0.63079 0.558696
upperback 7.77716 0.677304 2.26823
thorax -6.19583 0.12377 1.98157
lowerneck -17.9918 7.91292 -3.86706
upperneck 14.7434 12.1873 -2.55144
head 7.41471 5.34379 1.16287
rclavicle -2.54444e-014 -1.53064e-014
rhumerus -24.5208 29.3786 -93.1385
rradius 68.3687
rwrist 48.9196
rhand -7.07488 -13.1359
rfingers 7.12502
rthumb 18.7988 -42.2475
lclavicle -2.54444e-014 -1.53064e-014
lhumerus -20.5587 -25.9806 94.1764
lradius 55.3922
lwrist -16.5026
lhand -23.861 34.2555
lfingers 7.12502
lthumb 2.61159 64.2193
rfemur -52.1112 0.682087 18.3199
rtibia 41.2106
rfoot -13.8818 2.81626
rtoes 7.24624
lfemur -51.2625 -11.2301 10.1299
ltibia 18.9725
lfoot -20.2644 31.168
ltoes -9.29249
2217
root -4.34998 17.4116 -3.02627 -325.756 -63.8599 355.273
lowerback 26.8242 0.395798 0.847097
upperback 7.7349 0.458028 2.20449
thorax -6.25052 0.0224762 1.81395
lowerneck -17.8073 7.83347 -3.84635
upperneck 14.82 12.0494 -2.46212
head 7.40464 5.28664 1.16682
rclavicle -1.47101e-014 7.02704e-014
rhumerus -24.4957 29.6945 -93.1656
rradius 68.1749
rwrist 48.0396
rhand -7.13655 -13.1121
rfingers 7.12502
rthumb 18.7395 -42.2294
lclavicle -1.47101e-014 7.02704e-014
lhumerus -20.5989 -25.2407 93.9317
lradius 55.0773
lwrist -17.8141
lhand -22.7037 33.227
lfingers 7.12502
lthumb 3.72923 63.1741
rfemur -51.859 0.412182 18.5922
rtibia 40.8358
rfoot -13.8125 2.4311
rtoes 7.54175
lfemur -50.9271 -11.0909 9.53039
ltibia 19.3651
lfoot -20.0136 31.1132
ltoes -7.1584
2218
root -4.3475 17.4395 -3.11268 -326.125 -63.4449 355.585
lowerback 26.8603 0.308037 0.765235
upperback 7.75308 0.329619 2.21833
thorax -6.24526 -0.0376961 1.91652
lowerneck -17.8188 7.79384 -3.93226
upperneck 14.9309 12.0153 -2.41926
head 7.43558 5.2638 1.19312
rclavicle 4.33351e-014 -6.75868e-014
rhumerus -24.2752 30.1253 -93.1504
rradius 67.8822
rwrist 47.5988
rhand -7.25249 -13.4067
rfingers 7.12502
rthumb 18.628 -42.5347
lclavicle 4.33351e-014 -6.75868e-014
lhumerus -20.6822 -24.9874 93.9417
lradius 55.0023
lwrist -17.466
lhand -23.8309 35.5782
lfingers 7.12502
lthumb 2.64063 65.5416
rfemur -51.6527 0.420104 18.8093
rtibia 40.4544
rfoot -13.7527 1.9257
rtoes 7.71013
lfemur -50.5179 -10.6976 8.80948
ltibia 19.8833
lfoot -18.9342 31.0775
ltoes -6.75428
2219
root -4.34287 17.4685 -3.1965 -326.595 -62.925 356.02
lowerback 26.8949 0.214581 0.658521
upperback 7.78253 0.19134 2.28151
thorax -6.22615 -0.10292 2.09086
lowerneck -17.9519 7.75219 -4.01521
upperneck 15.1752 11.9852 -2.33814
head 7.52886 5.23838 1.24105
rclavicle -2.3059e-014 -1.05356e-014
rhumerus -24.1142 30.5087 -93.1143
rradius 67.5781
rwrist 46.842
rhand -7.39746 -13.3872
rfingers 7.12502
rthumb 18.4885 -42.5286
lclavicle -2.3059e-014 -1.05356e-014
lhumerus -20.6911 -24.659 94.0125
lradius 54.8371
lwrist -17.0285
lhand -24.8651 36.2899
lfingers 7.12502
lthumb 1.64186 66.2634
rfemur -51.4367 0.318703 19.0166
rtibia 40.0816
rfoot -13.6837 1.32641
rtoes 7.31803
lfemur -50.2058 -10.4084 8.09039
ltibia 20.4676
lfoot -17.6109 30.8708
ltoes -6.86792
2220
root -4.33487 17.4951 -3.28137 -327.154 -62.4079 356.68
lowerback 26.8614 0.15483 0.513208
upperback 7.79038 0.0834297 2.28205
thorax -6.19815 -0.151693 2.20808
lowerneck -18.0336 7.6556 -4.00842
upperneck 15.3249 11.8579 -2.29906
head 7.59145 5.17284 1.24657
rclavicle 2.90226e-014 4.22417e-014
rhumerus -23.9979 30.7723 -93.0515
rradius 67.3949
rwrist 45.903
rhand -7.45237 -13.5063
rfingers 7.12502
rthumb 18.4357 -42.6527
lclavicle 2.90226e-014 4.22417e-014
lhumerus -20.6557 -24.4037 94.0244
lradius 54.7497
lwrist -16.6884
lhand -24.3285 35.2749
lfingers 7.12502
lthumb 2.1601 65.2437
rfemur -51.3786 0.245756 19.0593
rtibia 39.7077
rfoot -13.5742 0.677405
rtoes 7.08927
lfemur -49.8069 -8.28236 5.762
ltibia 21.1561
lfoot -15.7962 27.951
ltoes -6.98541
2221
root -4.32821 17.5223 -3.36628 -327.713 -61.9972 357.332
lowerback 26.7884 0.122335 0.292695
upperback 7.84685 -0.0143464 2.27638
thorax -6.09671 -0.197412 2.35734
lowerneck -18.0156 7.57441 -4.13635
upperneck 15.2897 11.7703 -2.26008
head 7.56773 5.12953 1.26627
rclavicle 2.18663e-015 3.58806e-014
rhumerus -23.7751 31.0118 -92.9662
rradius 67.1162
rwrist 45.4993
rhand -7.68301 -13.3908
rfingers 7.12502
rthumb 18.2138 -42.5581
lclavicle 2.18663e-015 3.58806e-014
lhumerus -20.6157 -24.1908 93.9553
lradius 54.8858
lwrist -16.1134
lhand -23.6617 34.7542
lfingers 7.12502
lthumb 2.80411 64.7155
rfemur -51.318 0.331799 18.9695
rtibia 39.3429
rfoot -13.4856 0.0173739
rtoes 7.01958
lfemur -49.4238 -6.74027 3.9646
ltibia 21.876
lfoot -14.5548 25.2791
ltoes -7.28745
2222
root -4.31985 17.5512 -3.44763 -328.096 -61.5297 357.746
lowerback 26.7427 -0.00583398 0.0742732
upperback 7.93141 -0.223184 2.42657
thorax -5.97064 -0.299522 2.71156
lowerneck -17.9075 7.56208 -4.7044
upperneck 15.1576 11.8537 -2.10098
head 7.46103 5.16168 1.40056
rclavicle 5.35725e-014 5.27773e-014
rhumerus -23.6294 31.6769 -92.8659
rradius 66.9365
rwrist 45.5377
rhand -7.93808 -13.2259
rfingers 7.12502
rthumb 17.9684 -42.4159
lclavicle 5.35725e-014 5.27773e-014
lhumerus -20.5678 -23.5425 93.9292
lradius 55.1226
lwrist -15.5689
lhand -23.4794 34.708
lfingers 7.12502
lthumb 2.98009 64.667
rfemur -51.2108 0.405127 18.9999
rtibia 39.0113
rfoot -13.4968 -0.598232
rtoes 7.59047
lfemur -49.004 -5.64456 2.68084
ltibia 22.5993
lfoot -13.6586 22.7413
ltoes -8.13012
2223
root -4.3077 17.5796 -3.52403 -328.679 -60.8752 358.351
lowerback 26.7835 -0.715417 -0.7816
upperback 7.94991 -1.27892 3.15137
thorax -5.87863 -0.810546 4.33463
lowerneck -17.5289 8.07518 -6.86322
upperneck 14.8553 12.9985 -1.90986
head 7.13253 5.63186 1.86363
rclavicle -3.58558e-014 1.4182e-014
rhumerus -23.6924 35.0673 -92.4397
rradius 66.9173
rwrist 45.3626
rhand -7.86773 -13.4839
rfingers 7.12502
rthumb 18.0361 -42.6676
lclavicle -3.58558e-014 1.4182e-014
lhumerus -20.7002 -20.3234 94.3964
lradius 55.3962
lwrist -15.0804
lhand -23.4785 34.7651
lfingers 7.12502
lthumb 2.98097 64.7241
rfemur -51.0898 0.191048 19.0588
rtibia 38.7231
rfoot -13.5895 -1.11731
rtoes 8.69659
lfemur -48.6789 -4.89288 1.52183
ltibia 23.3413
lfoot -12.9139 20.3513
ltoes -8.91187
2224
root -4.29513 17.6039 -3.59808 -329.437 -60.3265 359.17
lowerback 26.8769 -0.964083 -1.12327
upperback 7.98291 -1.66355 3.33861
thorax -5.83891 -0.996615 4.86165
lowerneck -17.5021 8.15086 -7.44109
upperneck 14.9156 13.2512 -1.9635
head 7.11033 5.71205 1.95494
rclavicle 2.23633e-015 -1.2275e-014
rhumerus -23.5985 36.1551 -92.2257
rradius 66.8739
rwrist 45.3183
rhand -7.65589 -13.6975
rfingers 7.12502
rthumb 18.2399 -42.8624
lclavicle 2.23633e-015 -1.2275e-014
lhumerus -20.7629 -19.5045 94.5419
lradius 55.6364
lwrist -14.4885
lhand -23.7895 35.0475
lfingers 7.12502
lthumb 2.68061 65.0104
rfemur -51.0248 -0.0522961 18.9716
rtibia 38.4775
rfoot -13.5885 -1.65661
rtoes 9.17426
lfemur -48.3721 -4.17864 0.249226
ltibia 24.1406
lfoot -12.5514 18.027
ltoes -9.14101
2225
root -4.28287 17.626 -3.67434 -329.968 -59.8833 359.74
lowerback 26.9282 -0.762394 -0.773962
upperback 8.04179 -1.34448 2.9983
thorax -5.84638 -0.839975 4.18288
lowerneck -17.492 7.78044 -6.68191
upperneck 15.1571 12.5686 -1.90746
head 7.2481 5.41743 1.80496
rclavicle -7.2457e-014 7.67309e-014
rhumerus -23.7315 34.9701 -92.3526
rradius 67.0644
rwrist 45.3568
rhand -7.69833 -13.3842
rfingers 7.12502
rthumb 18.1991 -42.5528
lclavicle -7.2457e-014 7.67309e-014
lhumerus -20.7799 -20.8823 94.2235
lradius 55.8101
lwrist -14.091
lhand -23.7496 34.7601
lfingers 7.12502
lthumb 2.71921 64.7225
rfemur -50.978 -0.114845 18.9198
rtibia 38.2635
rfoot -13.6029 -2.19546
rtoes 9.1248
lfemur -48.0385 -3.31384 -0.945839
ltibia 25.0223
lfoot -12.3172 15.7904
ltoes -8.86365
2226
root -4.26831 17.6475 -3.75192 -330.394 -59.4142 360.229
lowerback 26.979 -0.157499 0.258444
upperback 8.12353 -0.377914 2.22586
thorax -5.86764 -0.370138 2.43281
lowerneck -17.4908 6.95688 -4.83344
upperneck 15.4311 10.9906 -1.7915
head 7.46647 4.76425 1.41575
rclavicle -6.85807e-014 1.07344e-014
rhumerus -23.9432 31.5584 -92.6742
rradius 67.4645
rwrist 45.6232
rhand -7.79286 -13.0825
rfingers 7.12502
rthumb 18.1081 -42.2596
lclavicle -6.85807e-014 1.07344e-014
lhumerus -20.6713 -24.5794 93.6152
lradius 56.0225
lwrist -13.3581
lhand -23.4003 34.422
lfingers 7.12502
lthumb 3.05655 64.3799
rfemur -50.9716 -0.0863388 18.8496
rtibia 38.0566
rfoot -13.5997 -2.75448
rtoes 9.12729
lfemur -47.7889 -2.35378 -2.15519
ltibia 26.0212
lfoot -11.9006 13.7073
ltoes -9.65098
2227
root -4.25511 17.6667 -3.82711 -330.719 -59.0051 360.668
lowerback 26.8973 0.0205065 0.457083
upperback 8.23934 -0.123233 2.03116
thorax -5.71049 -0.248235 2.02203
lowerneck -17.4337 6.67738 -4.4118
upperneck 15.4716 10.5111 -1.82476
head 7.50174 4.55492 1.28947
rclavicle -3.97569e-015 1.27222e-014
rhumerus -23.8332 30.7003 -92.674
rradius 67.5716
rwrist 45.7812
rhand -7.72205 -13.2216
rfingers 7.12502
rthumb 18.1763 -42.3923
lclavicle -3.97569e-015 1.27222e-014
lhumerus -20.5803 -25.7897 93.3898
lradius 56.3554
lwrist -12.6525
lhand -23.4903 34.6993
lfingers 7.12502
lthumb 2.96961 64.6584
rfemur -51.0416 -0.0804408 18.8104
rtibia 37.8398
rfoot -13.5186 -3.19132
rtoes 9.09904
lfemur -47.6086 -1.33285 -3.35784
ltibia 27.1385
lfoot -11.6732 11.786
ltoes -11.3192
2228
root -4.24279 17.6846 -3.8987 -331.065 -58.6528 361.078
lowerback 26.8608 -0.05897 0.179527
upperback 8.33241 -0.286628 2.17486
thorax -5.5821 -0.330098 2.38831
lowerneck -17.3903 6.71153 -4.83772
upperneck 15.5979 10.6757 -1.87595
head 7.51568 4.59766 1.35688
rclavicle -3.18055e-015 6.20208e-014
rhumerus -23.6472 31.3378 -92.5413
rradius 67.5087
rwrist 45.9595
rhand -7.55621 -13.3603
rfingers 7.12502
rthumb 18.3358 -42.5161
lclavicle -3.18055e-015 6.20208e-014
lhumerus -20.6072 -25.1687 93.5349
lradius 56.5918
lwrist -12.3498
lhand -24.043 35.1498
lfingers 7.12502
lthumb 2.43583 65.1157
rfemur -51.0628 -0.0832897 18.7627
rtibia 37.6318
rfoot -13.5094 -3.62715
rtoes 9.51917
lfemur -47.3736 -0.576605 -4.36508
ltibia 28.319
lfoot -11.569 10.288
ltoes -12.2637
2229
root -4.2268 17.7006 -3.97036 -331.414 -58.1565 361.547
lowerback 26.8432 -0.0393677 0.0521608
upperback 8.40916 -0.285643 2.30915
thorax -5.48679 -0.332479 2.60772
lowerneck -17.6351 6.61354 -4.88467
upperneck 15.9896 10.6229 -2.03798
head 7.69746 4.52971 1.32757
rclavicle -5.4467e-014 -4.47266e-014
rhumerus -23.5057 31.4257 -92.3161
rradius 67.5062
rwrist 46.1549
rhand -7.69102 -13.0347
rfingers 7.12502
rthumb 18.2061 -42.2027
lclavicle -5.4467e-014 -4.47266e-014
lhumerus -20.5711 -24.7929 93.7948
lradius 56.744
lwrist -12.3755
lhand -23.6071 34.3287
lfingers 7.12502
lthumb 2.85678 64.2893
rfemur -51.1279 -0.1736 18.6955
rtibia 37.4338
rfoot -13.5342 -4.13175
rtoes 9.6367
lfemur -47.2777 0.0801263 -5.35974
ltibia 29.5535
lfoot -11.3551 9.08895
ltoes -13.6192
